<?xml version="1.0" standalone="no"?>
<!DOCTYPE svg PUBLIC "-//W3C//DTD SVG 20010904//EN"
 "http://www.w3.org/TR/2001/REC-SVG-20010904/DTD/svg10.dtd">
<svg version="1.0" xmlns="http://www.w3.org/2000/svg"
 width="256.000000pt" height="256.000000pt" viewBox="0 0 256.000000 256.000000"
 preserveAspectRatio="xMidYMid meet">

<g transform="translate(0.000000,256.000000) scale(0.100000,-0.100000)"
fill="#000000" stroke="none">
<path d="M1131 2036 c-79 -46 -147 -90 -152 -97 -5 -8 -9 -82 -9 -164 l0 -151
-123 -72 c-68 -40 -127 -72 -132 -72 -4 0 -66 34 -139 75 -73 41 -135 75 -139
75 -5 0 -75 -39 -157 -86 l-150 -86 0 -178 0 -178 150 -86 c82 -47 152 -86
157 -86 4 0 66 34 139 75 73 41 135 75 138 75 3 0 62 -32 131 -71 l125 -71 2
-161 3 -162 153 -88 152 -89 128 73 c70 40 139 81 155 91 l27 19 0 158 0 158
122 69 c67 38 125 71 130 72 5 2 69 -30 142 -72 73 -42 135 -76 139 -76 4 0
75 39 157 86 l150 86 0 178 0 178 -150 86 c-82 47 -152 86 -156 86 -4 0 -67
-34 -140 -76 l-133 -76 -130 74 -130 73 -1 156 c0 113 -3 159 -12 167 -18 14
-291 172 -298 171 -3 0 -70 -37 -149 -83z m250 -41 c54 -31 101 -60 104 -65 3
-4 -42 -35 -99 -68 l-105 -60 -102 59 c-57 33 -104 61 -107 63 -3 4 197 125
207 126 3 0 49 -25 102 -55z m-236 -183 l100 -58 3 -127 3 -126 -91 52 c-49
28 -90 54 -90 57 0 3 23 17 50 32 35 19 50 34 50 48 0 32 -26 34 -76 6 -26
-14 -50 -26 -55 -26 -5 0 -9 45 -9 100 0 55 3 100 8 100 4 0 52 -26 107 -58z
m385 -42 c0 -55 -3 -100 -7 -100 -3 0 -25 11 -49 25 -46 27 -74 24 -74 -6 0
-12 17 -30 45 -47 25 -15 45 -30 45 -34 0 -5 -50 -35 -172 -105 -5 -2 -8 52
-8 120 l0 125 103 60 c56 34 105 61 110 61 4 1 7 -44 7 -99z m-391 -275 c71
-41 135 -75 141 -75 7 0 71 34 144 75 73 41 135 75 140 75 4 0 63 -33 132 -72
l125 -73 -3 -145 -3 -145 -125 -72 c-69 -40 -128 -73 -132 -73 -3 0 -64 34
-135 75 -71 41 -136 75 -143 75 -7 0 -72 -34 -143 -75 -71 -41 -132 -75 -135
-75 -4 0 -63 33 -132 73 l-125 72 -3 142 -3 142 128 75 c71 42 131 76 136 76
4 0 65 -34 136 -75z m-587 5 c54 -30 98 -57 98 -60 0 -6 -189 -113 -207 -118
-13 -3 -213 107 -213 118 0 11 195 119 210 117 8 -1 59 -27 112 -57z m1679 3
c55 -32 99 -60 99 -63 0 -4 -46 -33 -102 -65 l-102 -59 -70 39 c-39 21 -88 49
-110 62 l-39 25 104 59 c57 32 108 59 113 59 5 0 53 -26 107 -57z m-1926 -181
l100 -58 3 -122 c1 -67 0 -122 -4 -122 -4 0 -54 26 -110 58 l-104 57 0 123 c0
67 3 122 8 122 4 0 52 -26 107 -58z m375 -42 c0 -55 -3 -100 -7 -100 -3 0 -25
11 -49 25 -83 49 -106 -6 -23 -56 l50 -31 -85 -49 c-47 -27 -88 -49 -91 -49
-3 0 -5 55 -5 123 l0 122 98 57 c53 31 100 57 105 57 4 1 7 -44 7 -99z m1314
40 l96 -55 0 -122 c0 -68 -2 -123 -5 -123 -3 0 -44 22 -91 49 l-85 49 50 31
c33 19 51 38 51 50 0 31 -23 31 -78 1 l-52 -28 0 105 c0 59 4 103 9 101 5 -1
52 -28 105 -58z m376 -62 l0 -123 -98 -55 c-53 -30 -103 -56 -109 -58 -10 -3
-13 26 -13 117 l0 121 103 60 c56 33 105 60 110 60 4 0 7 -55 7 -122z m-982
-242 c56 -32 100 -62 97 -66 -3 -4 -50 -33 -104 -65 l-100 -57 -101 57 c-55
32 -102 60 -105 64 -4 7 195 131 205 128 3 -1 51 -28 108 -61z m-205 -202 l67
-38 0 -123 c0 -68 -2 -123 -4 -123 -2 0 -52 27 -110 61 l-106 61 0 125 0 125
43 -25 c23 -13 72 -42 110 -63z m347 -38 l0 -124 -105 -61 c-57 -34 -107 -61
-110 -61 -3 0 -5 55 -5 123 l0 122 108 62 c59 35 108 63 110 63 1 0 2 -56 2
-124z"/>
</g>
</svg>
